<?xml version="1.0" encoding="utf-8"?>
<!-- Svg Vector Icons : http://www.onlinewebfonts.com/icon -->
<!DOCTYPE svg PUBLIC "-//W3C//DTD SVG 1.1//EN" "http://www.w3.org/Graphics/SVG/1.1/DTD/svg11.dtd">
<svg version="1.1" xmlns="http://www.w3.org/2000/svg" xmlns:xlink="http://www.w3.org/1999/xlink" x="0px" y="0px" viewBox="0 0 1000 1000" enable-background="new 0 0 1000 1000" xml:space="preserve">
<metadata> Svg Vector Icons : http://www.onlinewebfonts.com/icon </metadata>
<g><g transform="translate(0.000000,511.000000) scale(0.100000,-0.100000)"><path d="M2017.4,4974.3c-128.8-43.6-216-107-289.3-208.1c-103-140.7-116.9-231.9-116.9-731.3v-451.9h-178.4h-178.4v-901.7v-901.7h178.4h178.4l4-3065.8L1621-4354l41.6-91.2c61.4-130.8,154.6-225.9,281.4-289.4l113-55.5h3121.3h3121.3l113,55.5c126.8,63.4,220,158.5,281.4,289.4l41.6,91.2l5.9,3791.2l4,3789.2h-178.4h-178.4l-4-3765.4l-5.9-3765.4l-65.4-63.4l-63.4-65.4H5178.4H2106.6l-63.4,65.4l-65.4,63.4l-5.9,3042.1l-4,3042.1h1912.4h1912.4v901.7v901.7H3878.3H1965.9l6,465.7l5.9,465.7l65.4,63.4l63.4,65.4l2516.9,5.9l2516.9,4v178.4V5010H4629.4C2296.8,5008,2108.6,5006,2017.4,4974.3z M3624.6,3180.8c348.8-180.3,352.8-800.7,4-973.1c-120.9-61.4-291.3-69.4-408.2-19.8c-231.9,95.1-338.9,398.3-249.7,703.5c35.7,124.8,172.4,271.5,285.4,311.1C3345.2,3232.3,3549.3,3220.4,3624.6,3180.8z M4778,3192.7c43.6-9.9,55.5-53.5,27.8-99.1c-11.9-19.8-33.7-19.8-83.2-5.9c-235.8,67.4-471.7-31.7-547-227.9c-39.6-107-29.7-305.2,19.8-400.3c69.4-136.7,259.6-216,438-186.3l79.3,11.9l5.9,164.5l6,162.5h-101.1c-93.1,0-99.1,4-99.1,49.5c0,49.5,2,49.5,168.5,49.5h168.5v-247.7v-247.7l-53.5-21.8c-31.7-11.9-126.8-25.8-216-31.7c-372.6-25.8-582.6,166.5-582.6,527.2C4011.1,3077.7,4344,3295.7,4778,3192.7z M2463.3,2740.8v-465.7h218h218v-59.5v-59.5h-287.4h-287.4v525.2v525.2h69.4h69.4V2740.8z"/><path d="M3216.4,3036.1c-190.3-172.4-178.4-580.7,21.8-723.4c91.2-65.4,225.9-71.3,323-13.9c235.8,136.7,243.8,612.4,13.9,763c-49.5,33.7-97.1,45.6-172.4,45.6C3307.5,3107.5,3287.7,3099.5,3216.4,3036.1z"/><path d="M7318.7,4197.5v-792.7h713.4h713.5L8042,4197.5c-388.4,436-709.5,792.7-715.4,792.7C7322.7,4990.2,7318.7,4633.5,7318.7,4197.5z"/><path d="M2923.1,227.9C2758.6,61.4,2621.8-81.3,2621.8-93.1c0-25.8,101.1-128.8,126.8-128.8c11.9,0,116.9,95.1,233.9,212.1l210.1,210.1L3365-144.6c95.1-190.3,176.4-348.8,180.3-352.8c5.9-5.9,93.1,73.3,196.2,176.4l188.3,188.3l178.4-178.4l178.4-176.4l114.9,113l115,113h166.5h168.5L5281.4-4l430.1,259.6L6248.5-103c293.3-196.2,541-356.7,549-356.7c7.9,0,128.8,113,267.5,251.7l253.7,251.7l65.4-63.4c57.5-55.5,77.3-63.4,178.4-63.4h113v99.1c0,99.1,0,99.1-63.4,99.1c-51.5,0-87.2,21.8-178.4,113l-114.9,114.9L7041.2,65.4l-275.5-275.5l-525.2,350.8l-525.2,350.8L5253.7,214L4791.9-63.4h-188.3c-182.3,0-188.3-2-251.7-63.4l-65.4-63.4L4108.2-13.9l-178.4,178.4L3763.4-2l-168.5-166.5l-174.4,348.8c-95.1,194.2-178.4,350.8-184.3,350.8S3089.5,394.4,2923.1,227.9z"/><path d="M4902.9-1359.5l-285.4-287.4l-154.6,79.3c-152.6,75.3-160.5,77.3-370.6,77.3h-216l-144.7-218c-79.3-120.9-152.6-216-162.5-214c-7.9,4-85.2,111-170.4,237.8l-154.6,231.9l-297.3-196.2c-162.5-109-297.3-206.1-301.2-218c-5.9-15.8,21.8-65.4,87.2-154.6c2-4,97.1,53.5,210.1,128.8c111,75.3,214,142.7,225.9,150.6c13.9,7.9,95.1-95.1,206.1-263.6c101.1-152.6,190.3-277.5,198.2-277.5c7.9,0,103.1,132.8,210.1,297.3l196.2,297.3H4124c132.8,0,156.6-7.9,344.8-101.1l200.2-101.1l249.7,249.7l249.7,247.7L5325-1631l158.5-239.8l168.5,7.9c148.6,5.9,190.3,15.8,327,81.2c87.2,41.6,223.9,114.9,303.2,162.5l144.7,89.2l531.1-352.8c291.3-194.2,539.1-360.7,552.9-368.6c17.8-9.9,59.5,55.5,134.8,204.1c59.5,120.9,109,223.9,109,229.9c0,7.9-146.6,89.2-164.5,89.2c-4,0-31.7-53.5-63.4-118.9c-31.7-65.4-63.4-118.9-73.3-118.9c-9.9,0-243.8,150.6-521.2,336.9l-503.4,336.9l-174.4-111c-269.5-168.5-447.9-251.7-566.8-259.6l-103-7.9l-196.2,297.3c-107,164.5-196.2,299.2-198.2,299.2C5188.3-1074.1,5059.5-1202.9,4902.9-1359.5z"/><path d="M3850.6-2956.8c-136.7-271.5-251.7-495.5-257.6-495.5c-7.9,0-37.6,81.3-69.4,180.3c-31.7,99.1-63.4,182.3-69.4,186.3c-13.9,7.9-770.9-178.4-784.8-194.2c-5.9-4,0-49.5,13.9-101.1c17.8-69.4,29.7-89.2,55.5-83.2c17.8,5.9,142.7,37.6,279.4,71.3c136.7,33.7,261.6,65.4,281.4,71.3c25.8,7.9,51.5-47.5,134.8-303.2c57.5-172.4,109-319.1,116.9-327c7.9-7.9,132.8,225.9,279.4,519.2c146.7,295.3,271.5,535.1,277.5,535.1c5.9,0,77.3-134.8,158.5-297.3c81.3-164.5,156.6-295.3,168.5-291.3c9.9,4,196.2,51.6,412.2,105l390.4,97.1l142.7,214c113,170.4,146.6,208.1,164.5,188.3c13.9-13.9,124.8-194.2,247.7-402.3c122.9-206.1,233.8-388.4,243.8-402.3c15.9-19.8,87.2,39.6,303.2,255.6l283.4,283.4l257.6-172.4c142.7-95.1,265.6-172.4,275.5-172.4c7.9,0,59.5,45.6,113,99.1l97.1,99.1h154.6h154.6v99.1v99.1h-202.1h-202.1l-75.3-73.3l-73.3-71.3l-259.6,170.4c-140.7,95.1-263.6,172.4-271.5,172.4c-7.9,0-124.8-109-257.6-241.8C6201-3271.9,6088-3377,6082.1-3373c-3.9,5.9-124.8,206.1-269.5,445.9c-144.7,239.8-265.6,440-267.5,441.9c-4,4-101.1-134.8-218-307.2l-208.1-315.1l-273.5-67.4c-148.6-35.7-285.4-69.4-301.2-73.3c-21.8-5.9-85.2,103.1-227.9,390.4c-109,218-202.1,396.4-208.1,396.4C4102.2-2461.4,3987.3-2683.3,3850.6-2956.8z"/></g></g>
</svg>